arm26Opt
version=1
nRows=22
nColumns=21
inDegrees=no
endheader
time	r_shoulder_elev	r_elbow_flex	r_shoulder_elev_u	r_elbow_flex_u	TRIlong.activation	TRIlong.fiber_length	TRIlat.activation	TRIlat.fiber_length	TRImed.activation	TRImed.fiber_length	BIClong.activation	BIClong.fiber_length	BICshort.activation	BICshort.fiber_length	BRA.activation	BRA.fiber_length	DeltAnt.activation	DeltAnt.fiber_length	DeltPost.activation	DeltPost.fiber_length
        0.375867	       -0.611248	        0.648068	       -1.456879	        0.006724	        0.128871	        0.130583	        0.081710	        0.084600	        0.078794	        0.079668	        0.058797	        0.141000	        0.063148	        0.146696	        0.055025	        0.084222	        0.049674	        0.180492	        0.315093	        0.072284
        0.376085	       -0.611566	        0.648069	       -1.455928	        0.006520	        0.128890	        0.130575	        0.081716	        0.084600	        0.078800	        0.079668	        0.058790	        0.141004	        0.063137	        0.146705	        0.055021	        0.084222	        0.049674	        0.180501	        0.315050	        0.072263
        0.376304	       -0.611884	        0.648071	       -1.454983	        0.006328	        0.128908	        0.130566	        0.081722	        0.084600	        0.078805	        0.079668	        0.058784	        0.141008	        0.063125	        0.146715	        0.055017	        0.084222	        0.049674	        0.180509	        0.315008	        0.072242
        0.376522	       -0.612202	        0.648072	       -1.454043	        0.006146	        0.128926	        0.130558	        0.081729	        0.084600	        0.078810	        0.079668	        0.058777	        0.141012	        0.063114	        0.146725	        0.055013	        0.084222	        0.049674	        0.180518	        0.314965	        0.072221
        0.376898	       -0.612747	        0.648074	       -1.452433	        0.005847	        0.128957	        0.130543	        0.081740	        0.084600	        0.078820	        0.079668	        0.058766	        0.141018	        0.063094	        0.146741	        0.055006	        0.084222	        0.049673	        0.180532	        0.314891	        0.072185
        0.377274	       -0.613293	        0.648076	       -1.450831	        0.005563	        0.128988	        0.130529	        0.081751	        0.084600	        0.078829	        0.079669	        0.058754	        0.141025	        0.063074	        0.146758	        0.055000	        0.084222	        0.049673	        0.180547	        0.314817	        0.072150
        0.377649	       -0.613837	        0.648078	       -1.449233	        0.005290	        0.129019	        0.130514	        0.081761	        0.084600	        0.078838	        0.079669	        0.058743	        0.141032	        0.063054	        0.146775	        0.054993	        0.084222	        0.049673	        0.180561	        0.314743	        0.072114
        0.378025	       -0.614381	        0.648080	       -1.447637	        0.005024	        0.129050	        0.130500	        0.081772	        0.084600	        0.078847	        0.079669	        0.058732	        0.141038	        0.063034	        0.146791	        0.054986	        0.084222	        0.049673	        0.180576	        0.314669	        0.072078
        0.378751	       -0.615431	        0.648084	       -1.444556	        0.004523	        0.129109	        0.130472	        0.081793	        0.084600	        0.078864	        0.079669	        0.058710	        0.141051	        0.062995	        0.146823	        0.054973	        0.084222	        0.049673	        0.180604	        0.314526	        0.072009
        0.379477	       -0.616479	        0.648087	       -1.441476	        0.004032	        0.129168	        0.130445	        0.081814	        0.084600	        0.078881	        0.079669	        0.058687	        0.141064	        0.062957	        0.146855	        0.054960	        0.084222	        0.049672	        0.180632	        0.314382	        0.071941
        0.380203	       -0.617525	        0.648090	       -1.438394	        0.003545	        0.129227	        0.130417	        0.081834	        0.084601	        0.078898	        0.079669	        0.058665	        0.141077	        0.062918	        0.146887	        0.054947	        0.084222	        0.049672	        0.180659	        0.314238	        0.071872
        0.380929	       -0.618568	        0.648092	       -1.435309	        0.003061	        0.129285	        0.130389	        0.081854	        0.084601	        0.078915	        0.079669	        0.058643	        0.141089	        0.062879	        0.146919	        0.054934	        0.084222	        0.049672	        0.180687	        0.314093	        0.071804
        0.381655	       -0.619609	        0.648094	       -1.432221	        0.002579	        0.129343	        0.130362	        0.081874	        0.084601	        0.078932	        0.079669	        0.058620	        0.141102	        0.062840	        0.146951	        0.054921	        0.084222	        0.049671	        0.180715	        0.313948	        0.071735
        0.383722	       -0.622560	        0.648098	       -1.423415	        0.001214	        0.129505	        0.130285	        0.081931	        0.084601	        0.078979	        0.079669	        0.058555	        0.141138	        0.062728	        0.147042	        0.054883	        0.084222	        0.049670	        0.180793	        0.313534	        0.071541
        0.385358	       -0.624883	        0.648099	       -1.416421	        0.000135	        0.129632	        0.130224	        0.081974	        0.084601	        0.079015	        0.079669	        0.058503	        0.141166	        0.062639	        0.147114	        0.054852	        0.084222	        0.049670	        0.180855	        0.313203	        0.071389
        0.386994	       -0.627194	        0.648099	       -1.409410	       -0.000942	        0.129756	        0.130163	        0.082017	        0.084601	        0.079050	        0.079669	        0.058451	        0.141195	        0.062549	        0.147185	        0.054822	        0.084222	        0.049669	        0.180916	        0.312870	        0.071237
        0.388630	       -0.629494	        0.648096	       -1.402381	       -0.002015	        0.129879	        0.130103	        0.082059	        0.084601	        0.079085	        0.079669	        0.058398	        0.141223	        0.062458	        0.147256	        0.054790	        0.084222	        0.049669	        0.180976	        0.312536	        0.071086
        0.390266	       -0.631783	        0.648092	       -1.395336	       -0.003089	        0.129999	        0.130044	        0.082100	        0.084601	        0.079119	        0.079669	        0.058344	        0.141251	        0.062368	        0.147327	        0.054759	        0.084222	        0.049668	        0.181037	        0.312199	        0.070935
        0.391902	       -0.634059	        0.648086	       -1.388273	       -0.004166	        0.130118	        0.129985	        0.082140	        0.084601	        0.079152	        0.079669	        0.058290	        0.141278	        0.062276	        0.147398	        0.054727	        0.084222	        0.049668	        0.181097	        0.311861	        0.070785
        0.395052	       -0.638411	        0.648070	       -1.374623	       -0.006263	        0.130341	        0.129872	        0.082215	        0.084600	        0.079213	        0.079669	        0.058184	        0.141332	        0.062098	        0.147533	        0.054665	        0.084222	        0.049667	        0.181212	        0.311203	        0.070498
        0.398202	       -0.642719	        0.648047	       -1.360910	       -0.008393	        0.130556	        0.129762	        0.082287	        0.084599	        0.079272	        0.079668	        0.058076	        0.141384	        0.061919	        0.147668	        0.054602	        0.084223	        0.049667	        0.181325	        0.310538	        0.070214
        0.401352	       -0.646985	        0.648017	       -1.347145	       -0.010551	        0.130765	        0.129652	        0.082356	        0.084599	        0.079328	        0.079668	        0.057966	        0.141437	        0.061737	        0.147802	        0.054538	        0.084223	        0.049667	        0.181437	        0.309866	        0.069933
